<svg t="1694054834651" class="icon" viewBox="0 0 1024 1024" version="1.1" xmlns="http://www.w3.org/2000/svg" p-id="4832" width="32" height="32"><path d="M734.6 475.9c-15.6-15.6-40.9-15.6-56.6 0L552.9 601.1v-495c0-22.1-17.9-40-40-40s-40 17.9-40 40v495.1L347.7 475.9c-15.6-15.6-40.9-15.6-56.6 0-15.6 15.6-15.6 40.9 0 56.6L484.6 726c7.2 7.2 17.2 11.7 28.3 11.7 11.1 0 21.1-4.5 28.3-11.7l193.4-193.4c15.6-15.7 15.6-41 0-56.7z" p-id="4833"></path><path d="M839.6 958.8h-654c-66.2 0-120-53.8-120-120v-126c0-66.2 53.8-120 120-120h47.7c22.1 0 40 17.9 40 40s-17.9 40-40 40h-47.7c-22.1 0-40 17.9-40 40v126.1c0 22.1 17.9 40 40 40h654.1c22.1 0 40-17.9 40-40V712.8c0-22.1-17.9-40-40-40h-46.8c-22.1 0-40-17.9-40-40s17.9-40 40-40h46.8c66.2 0 120 53.8 120 120v126.1c-0.1 66.1-53.9 119.9-120.1 119.9z" p-id="4834"></path></svg>