<svg t="1691485616284" class="icon" viewBox="0 0 1024 1024" version="1.1" xmlns="http://www.w3.org/2000/svg" p-id="6767" width="32" height="32"><path d="M481.578667 165.674667l399.189333 399.189333L463.616 981.973333 64.426667 582.805333l361.536-361.514666-123.669334-123.669334 55.616-55.616 123.669334 123.669334z m-18.026667 705.002666l305.898667-305.898666-287.786667-287.786667-305.92 305.877333 287.786667 287.808z m0 0l-287.786667-287.786666 593.685334-18.112-305.92 305.92z m405.973333 100.928a94.208 94.208 0 0 1-64-24.533333 80.341333 80.341333 0 0 1-26.453333-59.093333c0-46.293333 90.453333-195.349333 90.453333-195.349334S960 841.749333 960 887.978667c-0.064 46.165333-40.533333 83.562667-90.453333 83.626666z" p-id="6768"></path><path d="M0 1024h1024V0H0z" fill="#FFFFFF" fill-opacity="0" p-id="6769"></path></svg>