<svg t="1694155140731" class="icon" viewBox="0 0 1024 1024" version="1.1" xmlns="http://www.w3.org/2000/svg" p-id="3247" width="32" height="32"><path d="M339.456 314.88a124.928 124.928 0 0 0 107.008 116.224 754.176 754.176 0 0 1 309.76 116.48 694.272 694.272 0 0 0-70.656-13.056 1712.128 1712.128 0 0 0-221.952-13.568 123.904 123.904 0 0 0-87.296 35.584 125.44 125.44 0 0 0-37.12 88.576v9.984L144.64 486.4l194.816-170.24m80.384-200.448a22.016 22.016 0 0 0-14.08 5.376L7.68 468.736a21.76 21.76 0 0 0 0 32.768l397.824 347.392a21.76 21.76 0 0 0 36.096-16.384V645.12a22.016 22.016 0 0 1 22.016-21.76 1583.872 1583.872 0 0 1 207.616 12.544c169.472 23.04 264.704 105.216 313.856 167.936a20.736 20.736 0 0 0 16.384 7.936 22.272 22.272 0 0 0 22.016-25.6C963.072 419.84 553.216 342.528 460.8 329.728a21.76 21.76 0 0 1-18.688-21.504V137.472a21.76 21.76 0 0 0-22.016-21.76z" p-id="3248"></path></svg>