<svg t="1694054879266" class="icon" viewBox="0 0 1024 1024" version="1.1" xmlns="http://www.w3.org/2000/svg" p-id="5856" width="32" height="32"><path d="M841.195087 1023.853756H170.812911a170.959155 170.959155 0 0 1-170.739789-170.666667V170.666667A170.959155 170.959155 0 0 1 170.812911-0.073122H653.856612l369.924022 370.21651v483.043701a170.666667 170.666667 0 0 1-170.374179 170.666667z m12.211368-73.121965A97.398458 97.398458 0 0 0 950.731791 853.333333V400.562125L623.510997 73.341331H170.812911a97.398458 97.398458 0 0 0-97.398458 97.398458v682.520422a97.398458 97.398458 0 0 0 97.398458 97.398458H182.951157v-292.487861h658.097686v292.487861z m-85.552699 0v-219.365896h-511.853756v219.365896zM163.061982 449.261354v-292.487861h438.731791v292.487861z m73.121965-73.121965h292.487861v-146.243931h-292.487861z" p-id="5857"></path></svg>